<svg xmlns="http://www.w3.org/2000/svg" width="338" height="70"><g fill="#fff"><path d="m41.42 35.46 1.1.07c4.33.27 5.79 1.02 6.28 1.44.36.31 1.19 1.54 1.19 6.15v15.53c0 .74-.17 1.28-.5 1.6-.2.19-.98.75-3.89 1.7-1.36.45-2.81.79-4.31 1-1.52.21-2.86.32-3.98.32-6.58 0-12.19-2.42-16.66-7.2-4.5-4.8-6.78-11.61-6.78-20.24 0-10.51 2.28-18.12 6.77-22.62 4.49-4.49 9.76-6.77 15.66-6.77s10.5 1.87 14.13 5.71c2.03 2.21 4.04 5.65 5.97 10.23l.3.72h4.23L60.1.24h-4.06l-.3.73c-.35.85-.75 1.49-1.21 1.91-.2.19-.76.5-2.17.5-.17 0-1.12-.14-5.97-1.52A41.69 41.69 0 0 0 34.93.24c-10.75 0-19.5 3.73-26.02 11.1C3 18.01 0 26.12 0 35.45c0 10.63 3.78 19.23 11.22 25.56 6.72 5.71 15.09 8.61 24.85 8.61 5.28 0 10.84-.98 16.54-2.92 7.64-2.6 9.2-4.15 9.2-5.68V41.83c0-2.73.53-4.58 1.56-5.37.33-.27 1.32-.75 4.15-.93l1.1-.07v-4.08h-27.2v4.09zM121.68 5.43l1.06.1c3.2.31 5.45 1.07 6.5 2.18.59.63 1.59 2.66 1.59 9.17v25.38c0 6-.73 10.47-2.16 13.27-2.54 4.95-7.44 7.36-15 7.36-6.85 0-11.35-2.34-13.75-7.15-1.31-2.68-1.98-6.53-1.98-11.43V13.12c0-4.23.8-5.58 1.28-6.01.51-.46 2.04-1.27 6.58-1.58l1.1-.08V1.38H76.89v4.07l1.08.08c4.45.34 5.96 1.17 6.46 1.62.47.43 1.26 1.78 1.26 5.96v30.47c0 6.21 1.09 11.3 3.24 15.14 4.01 7.22 11.6 10.89 22.55 10.89s18.73-3.71 22.74-11.04c2.15-3.93 3.24-9.43 3.24-16.32V16.87c0-6.3.92-8.37 1.47-9.04.65-.8 2.33-1.85 6.62-2.31l1.05-.11V1.38h-24.91v4.05zM212.21 50.11c-2.38 5.26-5.03 8.6-7.9 9.91-2.97 1.37-7.73 2.06-14.14 2.06-7.44 0-9.9-.26-10.67-.48-.24-.07-.98-.28-.98-2.3V36.34h13.87c4.94 0 6.54.92 7.05 1.46.68.72 1.66 2.51 2.51 6.92l.18.95h4.43V20.8h-4.44l-.18.96c-.81 4.38-1.79 6.17-2.47 6.9-.51.55-2.11 1.47-7.09 1.47h-13.87V9.55c0-1.48.25-1.86.24-1.86 0 0 .34-.25 1.74-.25h13.27c6.75 0 9.35.9 10.33 1.65.97.74 2.32 2.67 3.28 7.63l.18.95h4.65l-.39-16.3h-54.12v4.08l1.09.08c4.34.31 5.77 1.15 6.25 1.63.46.47 1.23 1.86 1.23 5.96v43.37c0 4.46-.83 5.64-1.18 5.94-.49.42-1.97 1.19-6.34 1.65l-1.05.11v4.04h54.78l5.06-18.82h-5l-.31.69zM261.17 30.41l-8.56-5.29c-3.08-1.89-5.36-3.71-6.81-5.43-1.34-1.57-2-3.42-2-5.66 0-2.44.83-4.28 2.53-5.62 1.78-1.41 3.83-2.1 6.24-2.1 3.17 0 6.44 1.18 9.72 3.5 3.25 2.3 5.67 6.48 7.18 12.42l.22.89h4.55L271.86.01h-3.98l-.22.9c-.21.87-.5 1.54-.84 1.97-.22.27-.79.42-1.55.42-.16-.01-.99-.17-5-1.58C257.03.59 254.2.01 251.86.01c-5.69 0-10.34 1.77-13.83 5.25-3.48 3.48-5.25 7.89-5.25 13.11 0 3.99 1.49 7.69 4.45 10.99 1.55 1.69 3.65 3.37 6.24 5.01l8.31 5.19c4.69 2.92 7.78 5.13 9.19 6.53 2.08 2.14 3.09 4.59 3.09 7.47 0 3.2-.98 5.6-2.99 7.35-2.06 1.79-4.45 2.67-7.29 2.67-5.42 0-9.84-2.09-13.51-6.39-2.12-2.49-4-5.9-5.59-10.13l-.29-.76h-4.4l3.23 23.11h4.17l.16-.99c.1-.66.31-1.26.65-1.84.17-.3.6-.45 1.26-.46.17.01 1.04.17 5.28 1.65 3.39 1.18 6.7 1.78 9.84 1.78 6.26 0 11.5-1.83 15.56-5.44 4.1-3.64 6.18-8.25 6.18-13.68 0-4.06-1.18-7.63-3.51-10.63-2.27-2.85-6.19-6-11.64-9.36zM333.88 39.77c-2.27-2.85-6.19-6-11.64-9.36l-8.56-5.29c-3.08-1.89-5.37-3.71-6.81-5.43-1.35-1.57-2-3.42-2-5.66 0-2.44.83-4.28 2.53-5.62 1.78-1.41 3.83-2.1 6.25-2.1 3.17 0 6.44 1.18 9.73 3.5 3.25 2.3 5.67 6.48 7.18 12.42l.22.89h4.55L332.95.01h-3.98l-.22.9c-.21.87-.5 1.54-.84 1.97-.22.27-.79.42-1.55.42-.16-.01-.99-.17-5-1.58-3.24-1.13-6.07-1.71-8.41-1.71-5.69 0-10.35 1.77-13.83 5.25s-5.25 7.89-5.25 13.11c0 3.99 1.5 7.69 4.45 10.99 1.55 1.69 3.65 3.37 6.23 5.01l8.31 5.19c4.69 2.92 7.78 5.13 9.19 6.53 2.08 2.14 3.09 4.59 3.09 7.47 0 3.2-.98 5.6-3 7.35-2.06 1.79-4.45 2.67-7.29 2.67-5.42 0-9.84-2.09-13.51-6.39-2.12-2.49-4-5.9-5.59-10.13l-.28-.76h-4.4l3.23 23.11h4.17l.16-.99c.1-.66.31-1.26.64-1.84.17-.3.61-.45 1.26-.46.17.01 1.04.17 5.28 1.65 3.4 1.18 6.7 1.78 9.84 1.78 6.27 0 11.5-1.83 15.56-5.44 4.1-3.64 6.18-8.25 6.18-13.68 0-4.06-1.18-7.63-3.51-10.63z"/></g></svg>