<svg xmlns="http://www.w3.org/2000/svg" xmlns:xlink="http://www.w3.org/1999/xlink" width="30" height="14"><g fill="none" fill-rule="evenodd"><g transform="translate(.4)"><g fill="#FFF" transform="translate(1.2 1.2)"><path d="M5.8 11.6h6.8L15.7 0H5.8C2.6 0 0 2.6 0 5.8c0 3.2 2.6 5.8 5.8 5.8Z"/></g><g><path fill="#000" d="M22.2 0H7C3.1 0 0 3.1 0 7s3.1 7 7 7h15.2c3.9 0 7-3.1 7-7s-3.2-7-7-7Zm-21 7c0-3.2 2.6-5.8 5.8-5.8h9.9l-3.1 11.6H7c-3.2 0-5.8-2.6-5.8-5.8Z"/><path fill="#FFF" fill-rule="nonzero" d="M24.2 4c.2.2.2.6 0 .8L22.1 7l2.2 2.2c.2.2.2.6 0 .8-.2.2-.6.2-.8 0l-2.2-2.2-2.2 2.2c-.2.2-.6.2-.8 0-.2-.2-.2-.6 0-.8L20.4 7l-2.2-2.2c-.2-.2-.2-.6 0-.8.2-.2.6-.2.8 0l2.2 2.2L23.4 4c.2-.2.6-.2.8 0Z"/><path fill="#000" fill-rule="nonzero" d="M12.3 4.1c.2.2.3.6.1.8L8.2 9.8c-.1.1-.2.2-.3.2-.2.1-.5.1-.7-.1L5 7.7c-.2-.2-.2-.6 0-.8.2-.2.6-.2.8 0l1.8 1.7 3.8-4.5c.2-.2.6-.2.9 0Z"/></g></g></g></svg>